<svg width="21" height="13" viewBox="0 0 21 13" fill="none" xmlns="http://www.w3.org/2000/svg">
<path d="M0.556112 1.27031C0.849124 0.97739 1.24648 0.812835 1.6608 0.812835C2.07512 0.812835 2.47247 0.97739 2.76549 1.27031L10.4999 9.00469L18.2342 1.27031C18.5289 0.985692 18.9236 0.8282 19.3333 0.83176C19.743 0.83532 20.1349 0.999647 20.4246 1.28935C20.7143 1.57905 20.8786 1.97094 20.8822 2.38062C20.8857 2.79031 20.7282 3.185 20.4436 3.47969L11.6045 12.3188C11.3115 12.6117 10.9142 12.7762 10.4999 12.7762C10.0855 12.7762 9.68819 12.6117 9.39517 12.3188L0.556112 3.47969C0.263188 3.18668 0.0986328 2.78932 0.0986328 2.375C0.0986328 1.96068 0.263188 1.56333 0.556112 1.27031Z" fill="white"/>
</svg>
